<svg width="44" height="44" viewBox="0 0 44 44" fill="none" xmlns="http://www.w3.org/2000/svg">
<path d="M2 2H9.27273L14.1455 27.5048C14.3117 28.3817 14.7671 29.1694 15.4319 29.7301C16.0967 30.2907 16.9285 30.5886 17.7818 30.5714H35.4545C36.3078 30.5886 37.1397 30.2907 37.8045 29.7301C38.4693 29.1694 38.9246 28.3817 39.0909 27.5048L42 11.5238H11.0909M18.3636 40.0952C18.3636 41.1472 17.5496 42 16.5455 42C15.5413 42 14.7273 41.1472 14.7273 40.0952C14.7273 39.0433 15.5413 38.1905 16.5455 38.1905C17.5496 38.1905 18.3636 39.0433 18.3636 40.0952ZM38.3636 40.0952C38.3636 41.1472 37.5496 42 36.5455 42C35.5413 42 34.7273 41.1472 34.7273 40.0952C34.7273 39.0433 35.5413 38.1905 36.5455 38.1905C37.5496 38.1905 38.3636 39.0433 38.3636 40.0952Z" stroke="#666666" stroke-width="3" stroke-linecap="round" stroke-linejoin="round"/>
</svg>
