<svg width="35" height="35" viewBox="0 0 35 35" fill="none" xmlns="http://www.w3.org/2000/svg">
<path fill-rule="evenodd" clip-rule="evenodd" d="M8.31872 30.4099C9.2632 30.4099 10.1539 30.7681 11.0968 31.1475C16.8727 33.818 23.7039 32.6033 28.1543 28.1546C34.0263 22.2794 34.0263 12.7226 28.1543 6.85069C25.3111 4.00757 21.53 2.44271 17.5045 2.44271C13.4775 2.44271 9.69472 4.00919 6.85316 6.85232C2.4011 11.301 1.18957 18.132 3.83572 23.8524C4.21677 24.7953 4.58479 25.7137 4.58479 26.6679C4.58479 27.6205 4.25748 28.5796 3.96925 29.4263C3.73151 30.1233 3.37163 31.1752 3.60286 31.4064C3.82921 31.6409 4.88767 31.2713 5.58626 31.0319C6.42489 30.7453 7.37587 30.4164 8.31872 30.4099ZM17.4637 35C14.9755 35 12.471 34.474 10.1278 33.3895C9.43731 33.1127 8.79084 32.8522 8.32674 32.8522C7.79262 32.8554 7.0745 33.103 6.3808 33.3423C4.95757 33.8308 3.18587 34.4398 1.875 33.1339C0.569025 31.8263 1.17153 30.0596 1.6568 28.638C1.89617 27.9378 2.14206 27.2148 2.14206 26.6677C2.14206 26.2182 1.92549 25.6451 1.59329 24.8195C-1.45671 18.2328 -0.0465117 10.2945 5.12693 5.12445C8.42933 1.82051 12.8244 0 17.5028 0C22.1812 0 26.5779 1.81888 29.8803 5.12283C36.7066 11.9489 36.7066 23.0543 29.8803 29.8804C26.5339 33.2283 22.0281 35 17.4637 35Z" fill="#666666"/>
<ellipse cx="13.2035" cy="17.5002" rx="1.71818" ry="1.75" fill="#666666"/>
<ellipse cx="18.3578" cy="17.5005" rx="1.71818" ry="1.75" fill="#666666"/>
<ellipse cx="23.5131" cy="17.5005" rx="1.71818" ry="1.75" fill="#666666"/>
</svg>
