<svg width="42" height="39" viewBox="0 0 42 39" fill="none" xmlns="http://www.w3.org/2000/svg">
<path d="M37.0698 5.09425C36.1413 4.11329 35.0389 3.33511 33.8255 2.80419C32.6121 2.27327 31.3116 2 29.9982 2C28.6848 2 27.3842 2.27327 26.1708 2.80419C24.9574 3.33511 23.855 4.11329 22.9265 5.09425L20.9995 7.12916L19.0725 5.09425C17.197 3.11369 14.6532 2.00103 12.0009 2.00103C9.34846 2.00103 6.80471 3.11369 4.92918 5.09425C3.05366 7.07481 2 9.76103 2 12.562C2 15.3629 3.05366 18.0491 4.92918 20.0297L6.85617 22.0646L20.9995 37L35.1429 22.0646L37.0698 20.0297C37.9988 19.0492 38.7357 17.885 39.2385 16.6037C39.7412 15.3223 40 13.9489 40 12.562C40 11.175 39.7412 9.80161 39.2385 8.52027C38.7357 7.23894 37.9988 6.07476 37.0698 5.09425Z" stroke="#666666" stroke-width="3" stroke-linecap="round" stroke-linejoin="round"/>
</svg>
