<svg width="36" height="39" viewBox="0 0 36 39" fill="none" xmlns="http://www.w3.org/2000/svg">
<path d="M17.9997 6.56592C15.0293 6.56592 12.1806 7.68837 10.0802 9.68635C7.97987 11.6843 6.7999 14.3942 6.7999 17.2197V24.8296C6.7999 26.0406 6.2942 27.2019 5.39404 28.0582C4.49389 28.9145 3.27301 29.3955 2 29.3955H33.9993C32.7263 29.3955 31.5055 28.9145 30.6053 28.0582C29.7051 27.2019 29.1994 26.0406 29.1994 24.8296V17.2197C29.1994 14.3942 28.0195 11.6843 25.9191 9.68635C23.8187 7.68837 20.97 6.56592 17.9997 6.56592ZM17.9997 6.56592V2M20.7676 35.4834C20.4863 35.9447 20.0826 36.3276 19.5968 36.5937C19.111 36.8599 18.5603 37 17.9997 37C17.4391 37 16.8883 36.8599 16.4025 36.5937C15.9168 36.3276 15.513 35.9447 15.2317 35.4834" stroke="#666666" stroke-width="3" stroke-linecap="round" stroke-linejoin="round"/>
<ellipse cx="28.0742" cy="7.83333" rx="5.9258" ry="5.83333" fill="#8A3FFC"/>
</svg>
