<svg width="42" height="39" viewBox="0 0 42 39" fill="none" xmlns="http://www.w3.org/2000/svg">
<path d="M37.4667 2H29.7256L30.6952 11.7222C30.6952 11.7222 32.6343 13.6667 35.5431 13.6667C37.07 13.6687 38.545 13.1113 39.6909 12.0994C39.812 11.9859 39.9023 11.8434 39.9532 11.6852C40.0041 11.527 40.0139 11.3584 39.9818 11.1953L38.6128 2.97222C38.567 2.70057 38.4268 2.45394 38.217 2.27599C38.0073 2.09805 37.7415 2.00028 37.4667 2V2Z" stroke="#666666" stroke-width="3"/>
<path d="M29.7213 2L30.6909 11.7222C30.6909 11.7222 28.7518 13.6667 25.843 13.6667C22.9343 13.6667 20.9951 11.7222 20.9951 11.7222V2H29.7213Z" stroke="#666666" stroke-width="3"/>
<path d="M20.9937 2V11.7222C20.9937 11.7222 19.0545 13.6667 16.1458 13.6667C13.237 13.6667 11.2979 11.7222 11.2979 11.7222L12.2674 2H20.9937Z" stroke="#666666" stroke-width="3"/>
<path d="M12.2699 2H4.53074C4.25537 1.9999 3.98888 2.09773 3.77868 2.27611C3.56848 2.45448 3.42819 2.70183 3.38275 2.97417L2.01564 11.1972C1.95941 11.5317 2.05443 11.8758 2.30652 12.1014C2.94256 12.6653 4.36397 13.6686 6.45244 13.6686C9.36119 13.6686 11.3003 11.7242 11.3003 11.7242L12.2699 2.00194V2Z" stroke="#666666" stroke-width="3"/>
<path d="M3.55664 13.6665V33.1109C3.55664 34.1423 3.96525 35.1315 4.69257 35.8608C5.4199 36.5901 6.40637 36.9998 7.43496 36.9998H34.5832C35.6118 36.9998 36.5983 36.5901 37.3256 35.8608C38.0529 35.1315 38.4615 34.1423 38.4615 33.1109V13.6665" stroke="#666666" stroke-width="3"/>
<path d="M26.5061 37.0004V25.3337C26.5061 24.3023 26.0975 23.3132 25.3701 22.5839C24.6428 21.8545 23.6563 21.4448 22.6277 21.4448H18.7494C17.7208 21.4448 16.7344 21.8545 16.007 22.5839C15.2797 23.3132 14.8711 24.3023 14.8711 25.3337V37.0004" stroke="#666666" stroke-width="3" stroke-miterlimit="16"/>
</svg>
