<svg width="32" height="32" viewBox="0 0 32 32" fill="none" xmlns="http://www.w3.org/2000/svg">
<path d="M1 1H6.45455L10.1091 20.1286C10.2338 20.7863 10.5753 21.3771 11.0739 21.7976C11.5725 22.2181 12.1964 22.4414 12.8364 22.4286H26.0909C26.7309 22.4414 27.3548 22.2181 27.8533 21.7976C28.3519 21.3771 28.6935 20.7863 28.8182 20.1286L31 8.14286H7.81818M13.2727 29.5714C13.2727 30.3604 12.6622 31 11.9091 31C11.156 31 10.5455 30.3604 10.5455 29.5714C10.5455 28.7825 11.156 28.1429 11.9091 28.1429C12.6622 28.1429 13.2727 28.7825 13.2727 29.5714ZM28.2727 29.5714C28.2727 30.3604 27.6622 31 26.9091 31C26.156 31 25.5455 30.3604 25.5455 29.5714C25.5455 28.7825 26.156 28.1429 26.9091 28.1429C27.6622 28.1429 28.2727 28.7825 28.2727 29.5714Z" stroke="#999999" stroke-width="2" stroke-linecap="round" stroke-linejoin="round"/>
</svg>
